<svg class="icon" style="width: 1em;height: 1em;vertical-align: middle;fill: #666;overflow: hidden;" viewBox="0 0 1024 1024" version="1.1" xmlns="http://www.w3.org/2000/svg" p-id="14327"><path d="M576 128v288H309.984a314.56 314.56 0 0 0-38.976-67.008C237.248 304.128 179.36 256 96 256v64c59.36 0 97.504 31.872 124 67.008 25.28 33.504 35.008 64.992 36 68 2.624 108.48 66.624 202.24 158.016 248.992A96.512 96.512 0 0 0 320 800c0 52.64 43.36 96 96 96s96-43.36 96-96c0-28.384-12.256-54.4-32-72a284.8 284.8 0 0 0 64 8h96a284.8 284.8 0 0 0 64-8c-19.744 17.6-32 43.616-32 72 0 52.64 43.36 96 96 96s96-43.36 96-96a96.512 96.512 0 0 0-94.016-96c84.256-43.136 144.896-126.24 156-224 1.024-9.28 1.92-18.496 2.016-28v-2.016s0.256-5.248 0-13.984V416h-2.016c-2.368-30.624-8.736-76.992-32-126.016C855.904 209.792 769.504 128 608 128z m64 68c115.616 9.504 169.376 63.872 196.992 122.016 18.88 39.872 23.136 73.344 25.024 97.984H640zM327.008 480H856.96c-16.256 107.616-104.992 192-216.992 192h-96c-112 0-200.736-84.384-216.992-192zM416 768c18.016 0 32 14.016 32 32 0 18.016-14.016 32-32 32-18.016 0-32-14.016-32-32 0-18.016 14.016-32 32-32z m352 0c18.016 0 32 14.016 32 32 0 18.016-14.016 32-32 32-18.016 0-32-14.016-32-32 0-18.016 14.016-32 32-32z" p-id="14328"></path></svg>