<svg class="icon" style="width: 1em;height: 1em;vertical-align: middle;fill: #666;overflow: hidden;" viewBox="0 0 1024 1024" version="1.1" xmlns="http://www.w3.org/2000/svg" p-id="15995"><path d="M256 1024a256 256 0 0 1-38.826667-509.013333C229.973333 398.08 298.666667 263.68 424.106667 106.666667H362.666667a42.666667 42.666667 0 0 1 0-85.333334h316.586666a42.666667 42.666667 0 1 1 0 85.333334h-102.4c42.666667 192.426667 107.093333 308.906667 184.32 338.346666a213.333333 213.333333 0 1 1-89.6 45.653334c-74.24-58.453333-131.413333-170.666667-170.666666-341.333334C384 293.12 316.586667 416 302.933333 516.693333A256 256 0 0 1 256 1024z m0-426.666667a184.32 184.32 0 1 0 5.546667 0z m554.666667-72.96a128 128 0 1 0 128 128 128 128 0 0 0-128-128zM180.48 810.666667a42.666667 42.666667 0 0 1-42.666667-42.666667A118.186667 118.186667 0 0 1 256 650.24a42.666667 42.666667 0 1 1 0 85.333333 32.853333 32.853333 0 0 0-32.853333 32.426667 42.666667 42.666667 0 0 1-42.666667 42.666667z" p-id="15996"></path></svg>