<svg class="icon" style="width: 1em;height: 1em;vertical-align: middle;fill: #666;overflow: hidden;" viewBox="0 0 1024 1024" version="1.1" xmlns="http://www.w3.org/2000/svg" p-id="12697"><path d="M520.55 956.15L105.2 341.9h830.7l-415.35 614.25zM190.25 386.9L521 876.05l330.75-489.15h-661.5z" fill="#000000" p-id="12698"></path><path d="M350.45 371.6L277.55 247.4l-30.6-52.65-30.6 53.1-72 117.45-38.7-23.85 72.45-116.55L246.95 104.75l69.75 120.15 72.45 123.75z" fill="#000000" p-id="12699"></path><path d="M625.85 371.6l-72.45-124.2-30.6-52.65L423.35 368l-39.15-22.5 138.6-240.75 69.3 120.15L665 348.65z" fill="#000000" p-id="12700"></path><path d="M695.15 368l-38.7-22.5 138.6-240.75 69.3 120.15 71.1 116.55-38.25 23.4-71.55-117.45-30.6-52.65z" fill="#000000" p-id="12701"></path><path d="M246.95 103.85h547.65v45.9H246.95zM502.55 895.4L350 358.1l44.1-10.35 153 537.3z" fill="#000000" p-id="12702"></path><path d="M504.8 881.9l138.6-541.8 45 9.45-139.05 541.35z" fill="#000000" p-id="12703"></path></svg>