<svg class="icon" style="width: 1em;height: 1em;vertical-align: middle;fill: #666;overflow: hidden;" viewBox="0 0 1024 1024" version="1.1" xmlns="http://www.w3.org/2000/svg" p-id="11612"><path d="M690.447986 403.679968h-45.303996V180.447986c0-0.28-0.152-0.496-0.152-0.768 0.176-3.048 0.52-6.032 0.368-9.207999-1.664-36.743997-26.119998-80.079994-65.415995-115.895991C542.495998 20.391998 498.760001 0 462.952004 0c-27.615998 0-44.007997 11.639999-52.847996 21.375998-11.919999 13.023999-17.719999 30.463998-16.815999 50.383996 0.016 0.312 0.096 0.584 0.112 0.896-0.168 1.296-0.768 2.432-0.768 3.784V403.679968h-59.071995a31.543998 31.543998 0 0 0-31.535998 31.535998v557.239956a31.519998 31.519998 0 0 0 31.535998 31.535998h356.895972a31.519998 31.519998 0 0 0 31.535998-31.535998V435.215966a31.551998 31.551998 0 0 0-31.543998-31.535998zM456.472004 64.095995c0.016 0 1.712-1.016 6.488-1.016 16.295999 0 45.631996 11.767999 74.487994 38.103997 37.823997 34.495997 48.263996 69.759995 44.751997 76.815994-0.032 0-1.688 1.048-6.552 1.048-16.327999 0-45.663996-11.799999-74.519994-38.159997-40.191997-36.599997-47.471996-71.191994-44.655997-76.791994z m-0.776 120.543991c1 0.92 1.896 1.904 2.912 2.831999 37.439997 34.215997 81.183994 54.639996 117.023991 54.639996 2.4 0 4.216-0.52 6.44-0.672v162.239987H455.696004V184.639986z m203.215985 776.279939H365.088011v-494.159961h56.335996c0.952 0.088 1.768 0.552 2.736 0.551999h189.447985c0.984 0 1.784-0.464 2.736-0.551999h42.567997v494.159961z" fill="#838384" p-id="11613"></path></svg>