<svg class="icon" style="width: 1em;height: 1em;vertical-align: middle;fill: #666;overflow: hidden;" viewBox="0 0 1024 1024" version="1.1" xmlns="http://www.w3.org/2000/svg" p-id="14955"><path d="M888.863797 438.65067c0-13.007763-10.839802-23.124912-23.124912-23.124911H507.302752V346.873677h357.713479c13.007763 0 23.124912-10.839802 23.124912-23.124912s-10.839802-23.124912-23.124912-23.124912H507.302752v-44.804516h357.713479c13.007763 0 23.124912-10.839802 23.124912-23.124912 0-13.007763-10.839802-23.124912-23.124912-23.124912H627.985886c-1.445307-44.804517-38.300635-80.937191-83.827806-80.937191-17.343684 0-33.242061 5.058574-46.972477 14.45307-13.730416-9.394495-29.628793-14.45307-46.972477-14.45307-17.343684 0-33.242061 5.058574-46.972477 14.45307-5.058574-3.613267-10.839802-6.503881-16.62103-8.671842-9.394495-3.613267-20.234298-5.781228-30.351447-5.781228-42.636556 0-78.046577 31.796754-83.105152 73.710656-0.722653 1.445307-0.722653 3.613267-0.722653 5.781228v2.167961H162.597036c-13.007763 0-23.124912 10.839802-23.124912 23.124911 0 13.007763 10.839802 23.124912 23.124912 23.124912h109.843331v44.804517H162.597036c-13.007763 0-23.124912 10.839802-23.124912 23.124911s10.839802 23.124912 23.124912 23.124912h109.843331v68.652082H158.983769c-13.007763 0-23.124912 10.839802-23.124912 23.124912 0 155.370501 94.667608 289.784051 229.803811 346.873677v80.214537c0 18.066337 13.730416 31.796754 31.0741 31.796754h231.249118c17.343684 0 31.0741-14.45307 31.0741-31.796754v-80.214537c135.136203-58.534933 229.803811-192.225829 229.803811-347.596331z m-428.533522-23.847565h-46.972477v-68.652082h46.972477v68.652082z m0-114.901905h-46.972477v-44.804517h46.972477v44.804517zM544.15808 173.436838c19.511644 0 35.410021 15.175723 36.855329 33.964715H507.302752c1.445307-18.788991 17.343684-33.964714 36.855328-33.964715z m-93.944954 0c5.781228 0 11.562456 1.445307 16.621031 4.335921-2.890614 7.226535-5.058574 14.45307-6.503882 22.402259-0.722653 1.445307-0.722653 3.613267-0.722653 5.781228v2.16796h-46.972477c2.16796-19.511644 18.788991-34.687368 37.577981-34.687368z m-93.2223 0c4.335921 0 9.394495 0.722653 13.730416 2.167961 1.445307 0.722653 2.16796 0.722653 2.890614 1.445307-2.890614 7.226535-5.058574 14.45307-6.503881 22.402258-0.722653 1.445307-0.722653 3.613267-0.722654 5.781228v2.167961h-46.972477c2.16796-18.788991 18.066337-33.964714 37.577982-33.964715z m-37.577982 80.937192h46.972477v44.804516h-46.972477v-44.804516z m0 91.776993h46.972477v68.652082h-46.972477v-68.652082z m292.674665 504.412139H411.912491v-49.140438c31.796754 8.671842 65.761468 13.730416 100.448836 13.730416 34.687368 0 67.929428-5.058574 100.448835-13.730416v49.140438z m-99.726182-82.382499c-174.159492 0-317.244884-135.136203-328.80734-306.405081h658.337333c-13.007763 171.268878-155.370501 306.405081-329.529993 306.405081z" p-id="14956"></path></svg>