<svg class="icon" style="width: 1em;height: 1em;vertical-align: middle;fill: #FF0036;overflow: hidden;" viewBox="0 0 1024 1024" version="1.1" xmlns="http://www.w3.org/2000/svg" p-id="3064"><path d="M376.411417 748.84729c-52.905954 0-95.79988 41.172725-95.79988 91.966575 0 50.794873 42.893926 91.967598 95.79988 91.967598 52.925397 0 95.819322-41.172725 95.819322-91.967598C472.23074 790.021038 429.337837 748.84729 376.411417 748.84729zM874.613156 583.307046l114.963335-294.28956c2.958378-57.405431-38.308491-55.17667-38.308491-55.17667L280.612561 233.840816c18.264992-84.441181-57.491389-128.749316-57.491389-128.749316L88.993359 105.0915c-76.318176 20.712741-19.163455 91.967598-19.163455 91.967598l114.982778 18.394952c0 0 59.493999 347.561857 76.636425 423.038876 17.142425 75.478042 38.327934 73.571622 38.327934 73.571622L874.613156 712.064548c40.61093-62.812581 0-73.571622 0-73.571622L357.267405 638.492926l0-55.18588L874.613156 583.307046zM759.649821 748.84729c-52.924373 0-95.798856 41.172725-95.798856 91.966575 0 50.794873 42.874483 91.967598 95.798856 91.967598 52.925397 0 95.79988-41.172725 95.79988-91.967598C855.449701 790.021038 812.574195 748.84729 759.649821 748.84729z" p-id="3065"></path></svg>